<?xml version="1.0" standalone="no"?>
<!--
  - Copyright (C) 2024, Rijn Buve.
  -
  - Permission is hereby granted, free of charge, to any person obtaining a copy of this software and associated
  - documentation files (the "Software"), to deal in the Software without restriction, including without limitation
  - the rights to use, copy, modify, merge, publish, distribute, sublicense, and/or sell copies of the Software,
  - and to permit persons to whom the Software is furnished to do so, subject to the following conditions:
  -
  - The above copyright notice and this permission notice shall be included in all copies or substantial portions
  - of the Software.
  -
  - THE SOFTWARE IS PROVIDED "AS IS", WITHOUT WARRANTY OF ANY KIND, EXPRESS OR IMPLIED, INCLUDING BUT NOT LIMITED TO
  - THE WARRANTIES OF MERCHANTABILITY, FITNESS FOR A PARTICULAR PURPOSE AND NONINFRINGEMENT. IN NO EVENT SHALL THE
  - AUTHORS OR COPYRIGHT HOLDERS BE LIABLE FOR ANY CLAIM, DAMAGES OR OTHER LIABILITY, WHETHER IN AN ACTION OF CONTRACT,
  - TORT OR OTHERWISE, ARISING FROM, OUT OF OR IN CONNECTION WITH THE SOFTWARE OR THE USE OR OTHER DEALINGS IN THE
  - SOFTWARE.
  -->

<!DOCTYPE svg PUBLIC "-//W3C//DTD SVG 20010904//EN"
    "http://www.w3.org/TR/2001/REC-SVG-20010904/DTD/svg10.dtd">
<svg version="1.0" xmlns="http://www.w3.org/2000/svg"
     width="1024.000000pt" height="1024.000000pt" viewBox="0 0 1024.000000 1024.000000"
     preserveAspectRatio="xMidYMid meet">
  <metadata>
    Created by potrace 1.14, written by Peter Selinger 2001-2017
  </metadata>
  <g transform="translate(0.000000,1024.000000) scale(0.100000,-0.100000)"
     fill="#000000" stroke="none">
    <path d="M4365 9035 c-562 -58 -996 -199 -1454 -471 -268 -161 -463 -315 -716
-568 -402 -403 -661 -802 -853 -1316 -130 -347 -214 -732 -242 -1110 -13 -175
-13 -560 0 -770 49 -772 262 -1433 633 -1970 137 -197 375 -459 568 -626 51
-43 133 -115 183 -160 477 -425 1041 -693 1701 -809 305 -53 376 -58 945 -63
695 -5 1082 12 1640 73 280 31 730 94 750 105 8 5 36 30 62 57 46 47 47 51 73
173 87 425 219 909 386 1416 58 176 59 183 59 291 l0 110 -58 55 c-43 41 -73
60 -115 74 -51 16 -57 21 -57 44 0 40 -100 131 -170 156 -46 16 -84 19 -240
19 -226 0 -238 -4 -362 -133 -79 -83 -86 -93 -142 -227 -153 -363 -313 -636
-451 -768 -140 -136 -374 -251 -637 -316 -199 -49 -337 -65 -573 -65 -228 -1
-325 11 -543 64 -300 74 -611 219 -876 408 -178 128 -456 518 -632 887 -185
389 -291 759 -350 1220 -26 195 -26 623 -1 825 78 639 286 1161 626 1570 230
277 659 538 1093 665 554 162 1170 150 1634 -31 192 -75 227 -105 330 -277 85
-144 194 -412 244 -607 16 -59 135 -185 192 -202 25 -7 44 -21 53 -37 7 -14
44 -56 82 -92 85 -83 110 -89 348 -89 211 0 250 11 332 92 l53 52 0 96 c0 72
-7 125 -29 215 -99 403 -187 940 -213 1300 l-12 165 -48 47 c-39 39 -60 51
-111 63 -60 16 -62 17 -65 51 -2 28 -15 47 -55 86 l-52 51 -225 56 c-507 125
-783 173 -1213 212 -242 22 -1307 29 -1492 9z"/>
    <path d="M7235 6169 l-1620 -630 -52 -52 -53 -51 0 -106 0 -106 53 -51 c28
-29 64 -57 80 -62 24 -9 27 -16 27 -54 0 -38 5 -48 53 -94 l52 -52 1624 -630
1624 -631 106 0 107 0 52 53 52 53 0 1365 0 1365 -53 52 c-37 37 -60 52 -80
52 -26 0 -27 2 -27 53 0 50 -2 55 -53 105 l-53 52 -109 -1 -110 -1 -1620 -629z"/>
  </g>
</svg>
