<?xml version="1.0" standalone="no"?>
<!DOCTYPE svg PUBLIC "-//W3C//DTD SVG 20010904//EN"
 "http://www.w3.org/TR/2001/REC-SVG-20010904/DTD/svg10.dtd">
<svg version="1.0" xmlns="http://www.w3.org/2000/svg"
 width="256.000000pt" height="256.000000pt" viewBox="0 0 256.000000 256.000000"
 preserveAspectRatio="xMidYMid meet">
<metadata>
Created by potrace 1.14, written by Peter Selinger 2001-2017
</metadata>
<g transform="translate(0.000000,256.000000) scale(0.100000,-0.100000)"
fill="#000000" stroke="none">
<path d="M1257 2354 c-1 -1 -36 -4 -77 -7 -246 -18 -503 -202 -613 -439 -52
-114 -62 -163 -62 -318 0 -125 3 -155 23 -216 28 -83 75 -178 116 -231 77 -99
227 -223 290 -239 14 -3 28 -10 31 -14 5 -9 81 -33 145 -46 43 -10 254 -10
295 -1 17 4 37 8 45 10 33 7 96 30 107 39 7 5 16 7 22 4 5 -3 11 -2 13 2 1 5
29 23 61 41 31 18 57 36 57 41 0 5 8 11 18 14 18 6 79 65 131 127 48 57 121
194 137 259 2 8 8 33 13 55 12 50 12 278 -1 319 -5 17 -11 38 -13 46 -2 8 -12
38 -23 66 -68 172 -198 313 -379 411 -50 27 -208 74 -243 72 -14 0 -27 0 -30
1 -7 2 -61 6 -63 4z"/>
<path d="M964 699 c-15 -16 -12 -25 42 -121 33 -57 64 -112 71 -123 7 -11 17
-30 22 -42 5 -11 15 -24 21 -28 5 -3 8 -11 5 -16 -4 -5 -2 -9 3 -9 6 0 15 -12
21 -27 6 -16 28 -55 49 -88 49 -78 70 -82 111 -21 17 24 31 47 31 50 0 3 24
45 53 93 29 48 56 95 60 103 4 8 11 22 17 30 34 54 100 170 100 178 0 5 -8 16
-17 24 -15 13 -62 15 -295 15 -254 0 -279 -1 -294 -18z"/>
</g>
</svg>
